<?xml version="1.0" encoding="utf-8"?>
<!-- Generator: Adobe Illustrator 26.0.2, SVG Export Plug-In . SVG Version: 6.00 Build 0)  -->
<svg version="1.1" id="Ebene_1" xmlns="http://www.w3.org/2000/svg" xmlns:xlink="http://www.w3.org/1999/xlink" x="0px" y="0px"
	 viewBox="0 0 257.1 101" style="enable-background:new 0 0 257.1 101;" xml:space="preserve">
<g>
	<path d="M7,40.4c0.2-0.1,0.3-0.3,0.3-0.4l3.7-9.3h15.7l3.8,9.3c0.1,0.2,0.2,0.3,0.3,0.4c0.1,0.1,0.3,0.2,0.5,0.2h1.8L20,8.6h-2.3
		L4.7,40.5h1.8C6.6,40.5,6.8,40.5,7,40.4z M18.2,12.8c0.1-0.3,0.2-0.6,0.3-0.9c0.1-0.3,0.2-0.7,0.3-1c0.1,0.4,0.2,0.7,0.3,1
		c0.1,0.3,0.2,0.6,0.3,0.9L26,28.9H11.7L18.2,12.8z"/>
	<polygon points="62.4,38.6 47.2,38.6 47.2,8.6 44.9,8.6 44.9,40.5 62.4,40.5 	"/>
	<polygon points="78.4,40.5 80.7,40.5 80.7,10.6 91.9,10.6 91.9,8.6 67.1,8.6 67.1,10.6 78.4,10.6 	"/>
	<path d="M106.2,13.3c0-0.4,0-0.8-0.1-1.3L119,34.4c0.2,0.4,0.5,0.6,0.9,0.6h0.4c0.4,0,0.7-0.2,0.9-0.6l12.6-22.3
		c0,0.4-0.1,0.8-0.1,1.2v27.2h2V8.6h-1.6c-0.2,0-0.4,0-0.5,0.1c-0.1,0-0.2,0.2-0.4,0.4l-12.5,22.2c-0.1,0.2-0.2,0.4-0.3,0.7
		c-0.1,0.2-0.2,0.5-0.3,0.7c-0.2-0.5-0.4-0.9-0.6-1.4L106.6,9c-0.1-0.2-0.2-0.3-0.4-0.4c-0.1,0-0.3-0.1-0.5-0.1h-1.6v31.9h2V13.3z"
		/>
	<path d="M173.4,39.9c0.1,0.2,0.2,0.3,0.3,0.4c0.1,0.1,0.3,0.2,0.5,0.2h1.8L162.9,8.6h-2.3l-13.1,31.9h1.8c0.2,0,0.4-0.1,0.5-0.2
		c0.2-0.1,0.3-0.3,0.3-0.4l3.7-9.3h15.7L173.4,39.9z M154.6,28.9l6.5-16.1c0.1-0.3,0.2-0.6,0.3-0.9c0.1-0.3,0.2-0.7,0.3-1
		c0.1,0.4,0.2,0.7,0.3,1c0.1,0.3,0.2,0.6,0.3,0.9l6.5,16.1H154.6z"/>
	<path d="M189.8,13.7c0-0.4,0-0.8-0.1-1.3l20.8,27.7c0.2,0.3,0.5,0.5,0.8,0.5h1.1V8.6h-2v26.8c0,0.4,0,0.9,0.1,1.3L189.8,9
		c-0.1-0.2-0.3-0.3-0.4-0.3c-0.1-0.1-0.3-0.1-0.5-0.1h-1.1v31.9h2V13.7z"/>
	<path d="M251.3,8.6v26.8c0,0.4,0,0.9,0.1,1.3L230.7,9c-0.1-0.2-0.3-0.3-0.4-0.3c-0.1-0.1-0.3-0.1-0.5-0.1h-1.1v31.9h2V13.7
		c0-0.4,0-0.8-0.1-1.3l20.8,27.7c0.2,0.3,0.5,0.5,0.8,0.5h1.1V8.6H251.3z"/>
	<polygon points="43.2,92 44.4,92 44.4,88 48.3,88 48.3,87 44.4,87 44.4,83.7 48.9,83.7 48.9,82.7 43.2,82.7 	"/>
	<path d="M68.3,83.9c-0.4-0.4-0.9-0.8-1.5-1c-0.6-0.2-1.2-0.4-1.9-0.4c-0.7,0-1.3,0.1-1.9,0.4c-0.6,0.2-1.1,0.6-1.5,1
		s-0.7,0.9-0.9,1.5c-0.2,0.6-0.3,1.2-0.3,1.9s0.1,1.3,0.3,1.9c0.2,0.6,0.5,1.1,0.9,1.5s0.9,0.7,1.5,1c0.6,0.2,1.2,0.3,1.9,0.3
		c0.7,0,1.3-0.1,1.9-0.3s1.1-0.6,1.5-1s0.7-0.9,0.9-1.5c0.2-0.6,0.3-1.2,0.3-1.9s-0.1-1.3-0.3-1.9C69,84.9,68.7,84.4,68.3,83.9z
		 M68,88.9c-0.2,0.5-0.4,0.8-0.7,1.2c-0.3,0.3-0.6,0.6-1,0.7C65.9,91,65.4,91,64.9,91c-0.5,0-1-0.1-1.4-0.3c-0.4-0.2-0.8-0.4-1-0.7
		c-0.3-0.3-0.5-0.7-0.7-1.2c-0.2-0.5-0.2-1-0.2-1.5c0-0.6,0.1-1.1,0.2-1.5c0.2-0.5,0.4-0.8,0.7-1.2c0.3-0.3,0.6-0.6,1-0.7
		c0.4-0.2,0.9-0.3,1.4-0.3c0.5,0,1,0.1,1.4,0.3c0.4,0.2,0.8,0.4,1,0.7c0.3,0.3,0.5,0.7,0.7,1.2c0.2,0.5,0.2,1,0.2,1.5
		C68.3,87.9,68.2,88.5,68,88.9z"/>
	<polygon points="80,83.8 83,83.8 83,92 84.3,92 84.3,83.8 87.3,83.8 87.3,82.7 80,82.7 	"/>
	<path d="M105.8,83.9c-0.4-0.4-0.9-0.8-1.5-1c-0.6-0.2-1.2-0.4-1.9-0.4c-0.7,0-1.3,0.1-1.9,0.4c-0.6,0.2-1.1,0.6-1.5,1
		s-0.7,0.9-0.9,1.5c-0.2,0.6-0.3,1.2-0.3,1.9s0.1,1.3,0.3,1.9c0.2,0.6,0.5,1.1,0.9,1.5s0.9,0.7,1.5,1c0.6,0.2,1.2,0.3,1.9,0.3
		c0.7,0,1.3-0.1,1.9-0.3s1.1-0.6,1.5-1s0.7-0.9,0.9-1.5c0.2-0.6,0.3-1.2,0.3-1.9s-0.1-1.3-0.3-1.9C106.5,84.9,106.2,84.4,105.8,83.9
		z M105.5,88.9c-0.2,0.5-0.4,0.8-0.7,1.2c-0.3,0.3-0.6,0.6-1,0.7c-0.4,0.2-0.9,0.3-1.4,0.3c-0.5,0-1-0.1-1.4-0.3
		c-0.4-0.2-0.8-0.4-1-0.7c-0.3-0.3-0.5-0.7-0.7-1.2c-0.2-0.5-0.2-1-0.2-1.5c0-0.6,0.1-1.1,0.2-1.5c0.2-0.5,0.4-0.8,0.7-1.2
		c0.3-0.3,0.6-0.6,1-0.7c0.4-0.2,0.9-0.3,1.4-0.3c0.5,0,1,0.1,1.4,0.3c0.4,0.2,0.8,0.4,1,0.7c0.3,0.3,0.5,0.7,0.7,1.2
		c0.2,0.5,0.2,1,0.2,1.5C105.7,87.9,105.7,88.5,105.5,88.9z"/>
	<path d="M123.8,88.3c0,0.1,0,0.1,0.1,0.2c0,0,0.1,0.1,0.2,0.1h1.4v2.1c-0.2,0.1-0.3,0.2-0.5,0.2c-0.2,0.1-0.3,0.1-0.5,0.2
		c-0.2,0-0.4,0.1-0.6,0.1c-0.2,0-0.4,0-0.7,0c-0.5,0-1-0.1-1.4-0.3c-0.4-0.2-0.8-0.4-1.1-0.7c-0.3-0.3-0.5-0.7-0.7-1.2
		c-0.2-0.5-0.3-1-0.3-1.6c0-0.6,0.1-1.1,0.2-1.5c0.2-0.5,0.4-0.8,0.7-1.2c0.3-0.3,0.7-0.6,1.1-0.7c0.4-0.2,0.9-0.3,1.4-0.3
		c0.4,0,0.7,0,0.9,0.1c0.3,0.1,0.5,0.1,0.7,0.2c0.2,0.1,0.4,0.2,0.5,0.3c0.1,0.1,0.3,0.2,0.4,0.2c0.1,0,0.2,0.1,0.2,0.1
		c0.1,0,0.2-0.1,0.3-0.2l0.4-0.6c-0.2-0.2-0.4-0.3-0.6-0.5c-0.2-0.1-0.5-0.3-0.8-0.4c-0.3-0.1-0.6-0.2-0.9-0.2
		c-0.3-0.1-0.7-0.1-1-0.1c-0.7,0-1.4,0.1-2,0.3c-0.6,0.2-1.1,0.6-1.5,1c-0.4,0.4-0.7,0.9-1,1.5c-0.2,0.6-0.3,1.2-0.3,2
		c0,0.7,0.1,1.4,0.3,1.9s0.5,1.1,1,1.5c0.4,0.4,0.9,0.7,1.5,1c0.6,0.2,1.2,0.3,1.9,0.3c0.4,0,0.7,0,1.1-0.1s0.6-0.1,0.9-0.2
		c0.3-0.1,0.6-0.2,0.8-0.3c0.3-0.1,0.5-0.3,0.7-0.4v-3.6h-2.9V88.3z"/>
	<path d="M142.9,87.9c0.4-0.1,0.7-0.2,1-0.4c0.3-0.2,0.5-0.4,0.7-0.6c0.2-0.2,0.3-0.5,0.5-0.8c0.1-0.3,0.2-0.6,0.2-0.9
		c0-0.4-0.1-0.8-0.2-1.1c-0.1-0.3-0.3-0.6-0.6-0.8c-0.3-0.2-0.6-0.4-1.1-0.5c-0.4-0.1-0.9-0.2-1.5-0.2h-2.6V92h1.3v-3.9h1
		c0.2,0,0.3,0,0.4,0.1c0.1,0,0.2,0.1,0.2,0.2l2.4,3.3c0.1,0.2,0.3,0.3,0.5,0.3h1.1l-2.7-3.7C143.2,88.2,143,88,142.9,87.9z
		 M141.7,87.2h-1.3v-3.5h1.4c0.7,0,1.3,0.1,1.6,0.4c0.4,0.3,0.6,0.7,0.6,1.3c0,0.3,0,0.5-0.1,0.8c-0.1,0.2-0.2,0.4-0.4,0.6
		c-0.2,0.2-0.4,0.3-0.7,0.4C142.4,87.2,142.1,87.2,141.7,87.2z"/>
	<path d="M160.4,82.7l-3.7,9.4h1c0.1,0,0.2,0,0.3-0.1c0.1-0.1,0.1-0.1,0.2-0.2l0.9-2.3h4.2l0.9,2.3c0,0.1,0.1,0.2,0.2,0.2
		c0.1,0.1,0.2,0.1,0.3,0.1h1l-3.7-9.4H160.4z M159.3,88.6l1.5-3.8c0-0.1,0.1-0.2,0.1-0.4c0-0.2,0.1-0.3,0.1-0.5
		c0.1,0.4,0.2,0.6,0.3,0.9l1.5,3.8H159.3z"/>
	<polygon points="176.9,92 178.2,92 178.2,88 182,88 182,87 178.2,87 178.2,83.7 182.7,83.7 182.7,82.7 176.9,82.7 	"/>
	<rect x="194.8" y="82.7" width="1.3" height="9.4"/>
	<polygon points="208.9,92 214.7,92 214.7,91 210.2,91 210.2,87.8 213.8,87.8 213.8,86.8 210.2,86.8 210.2,83.7 214.7,83.7 
		214.7,82.7 208.9,82.7 	"/>
	<rect x="4.7" y="61.9" width="110.8" height="1"/>
	<rect x="154.3" y="61.9" width="99" height="1"/>
	<path d="M142.4,68.4c0.8,0,1.4-0.6,1.4-1.4c0-3,0-6.1,0-9.1c0-0.8-0.6-1.4-1.3-1.4c-0.8,0-1.7,0-2.5,0c-0.1,0-0.1,0-0.2-0.1
		c-0.8-0.8-1.6-1.6-2.5-2.5c-0.1-0.1-0.1-0.1-0.2-0.1c-1.7,0-3.4,0-5,0c-0.1,0-0.1,0-0.2,0.1c-0.8,0.8-1.6,1.6-2.5,2.5
		c-0.1,0.1-0.1,0.1-0.2,0.1c-0.8,0-1.7,0-2.5,0c-0.7,0-1.3,0.6-1.3,1.3c0,3,0,6.1,0,9.1c0,0.8,0.7,1.4,1.4,1.4c2.6,0,5.2,0,7.8,0
		c2.4,0,4.7,0,7.1,0C141.9,68.4,142.2,68.4,142.4,68.4z M131.4,56.5c0.4-0.4,0.8-0.8,1.1-1.1c0.1-0.1,0.1-0.1,0.2-0.1
		c1.2,0,2.5,0,3.7,0c0.1,0,0.1,0,0.2,0.1c0.4,0.4,0.8,0.8,1.2,1.2c0,0,0,0,0.1,0.1C135.6,56.6,133.5,56.6,131.4,56.5
		C131.3,56.6,131.3,56.6,131.4,56.5z M132.2,67.1c-1.6,0-3.2,0-4.8,0c-0.5,0-0.7-0.3-0.7-0.7c0-1.9,0-3.7,0-5.6c0-0.1,0-2.1,0-2.4
		c0-0.3,0.3-0.5,0.6-0.5c0.9,0,1.8,0,2.8,0c0.3,0,0.5,0,0.8,0c0,0,0.1,0,0.1,0c0,0,0,0,0,0c0,0-0.1,0-0.1,0.1
		c-0.9,0.8-1.5,1.9-1.6,3.1c-0.2,1.7,0.3,3.2,1.5,4.5c0.5,0.5,0.9,0.9,1.4,1.4c0,0,0,0.1,0.1,0.1C132.3,67.1,132.3,67.1,132.2,67.1z
		 M134.6,65.8c-2.2,0-3.9-1.8-3.9-3.9c0-2.2,1.8-3.9,4-3.9c2.2,0,3.9,1.8,3.9,3.9C138.5,64,136.7,65.8,134.6,65.8z M141.1,61.2
		c-1-1.1-2-2.2-3.1-3.3c1,0,2.1,0,3.1,0C141.1,59,141.1,60.1,141.1,61.2z"/>
	<path d="M135.8,59.6c-1.1-0.6-2.4-0.4-3.2,0.5c-0.8,0.9-0.9,2.2-0.3,3.2c0.6,1,1.7,1.4,2.5,1.2c-0.5-0.1-0.9-0.4-1.2-0.8
		c-0.3-0.4-0.4-0.9-0.4-1.4c0.1-0.9,0.8-1.6,1.6-1.7c0.4-0.1,0.8,0,1.2,0.2c0.6,0.3,0.9,0.8,1.1,1.4
		C137.3,61.2,136.9,60.1,135.8,59.6z"/>
</g>
</svg>
