<svg id="Ebene_1" data-name="Ebene 1" xmlns="http://www.w3.org/2000/svg" viewBox="0 0 116.808 39.24">
  <defs>
    <style>
      .cls-1 {
        fill: #1d1d1b;
      }
    </style>
  </defs>
  <g>
    <path class="cls-1" d="M591.791,157.563a.455.455,0,0,0,.148-.2l1.76-4.356h7.365l1.77,4.356a.523.523,0,0,0,.148.206.369.369,0,0,0,.244.08h.837l-6.136-15h-1.081l-6.136,15h.827A.393.393,0,0,0,591.791,157.563Zm5.3-12.929c.049-.127.1-.267.148-.419s.1-.312.148-.482c.05.17.1.33.149.482s.1.288.148.408l3.063,7.578h-6.719Z" transform="translate(-590.708 -142.652)"/>
    <polygon class="cls-1" points="27.1 14.074 19.989 14.074 19.989 0 18.908 0 18.908 14.996 27.1 14.996 27.1 14.074"/>
    <polygon class="cls-1" points="34.624 14.996 35.705 14.996 35.705 0.922 40.972 0.922 40.972 0 29.325 0 29.325 0.922 34.624 0.922 34.624 14.996"/>
    <path class="cls-1" d="M638.4,144.867a5.817,5.817,0,0,0-.032-.593l6.062,10.491a.477.477,0,0,0,.424.276h.169a.462.462,0,0,0,.424-.276l5.9-10.481a5.721,5.721,0,0,0-.031.583v12.781h.953v-15h-.752a.686.686,0,0,0-.233.032.386.386,0,0,0-.17.169l-5.892,10.418a2.826,2.826,0,0,0-.154.312c-.046.11-.09.221-.132.334a4.3,4.3,0,0,0-.276-.635l-6.051-10.429a.379.379,0,0,0-.175-.169.739.739,0,0,0-.238-.032h-.742v15h.943Z" transform="translate(-590.708 -142.652)"/>
    <path class="cls-1" d="M669.959,157.362a.533.533,0,0,0,.148.206.369.369,0,0,0,.244.08h.837l-6.136-15h-1.081l-6.136,15h.827a.392.392,0,0,0,.254-.085.463.463,0,0,0,.148-.2l1.76-4.356h7.365Zm-8.807-5.161,3.063-7.567c.049-.127.1-.267.148-.419s.1-.312.149-.482c.049.17.1.33.148.482s.1.288.148.408l3.063,7.578Z" transform="translate(-590.708 -142.652)"/>
    <path class="cls-1" d="M677.684,145.026q0-.286-.032-.6l9.75,13.014a.459.459,0,0,0,.392.212h.519v-15h-.953v12.579a5.953,5.953,0,0,0,.032.615l-9.708-12.993a.506.506,0,0,0-.18-.164.591.591,0,0,0-.233-.037h-.53v15h.943Z" transform="translate(-590.708 -142.652)"/>
    <path class="cls-1" d="M706.563,142.652v12.579q0,.3.031.615l-9.707-12.993a.514.514,0,0,0-.18-.164.594.594,0,0,0-.233-.037h-.53v15h.943V145.026q0-.286-.032-.6l9.75,13.014a.459.459,0,0,0,.392.212h.519v-15Z" transform="translate(-590.708 -142.652)"/>
    <polygon class="cls-1" points="18.086 39.191 18.684 39.191 18.684 37.302 20.487 37.302 20.487 36.817 18.684 36.817 18.684 35.281 20.794 35.281 20.794 34.796 18.086 34.796 18.086 39.191"/>
    <path class="cls-1" d="M620.594,178.029a1.974,1.974,0,0,0-.685-.464,2.437,2.437,0,0,0-1.768,0,1.979,1.979,0,0,0-.684.464,2.115,2.115,0,0,0-.442.712,2.709,2.709,0,0,0,0,1.812,2.086,2.086,0,0,0,.442.71,1.988,1.988,0,0,0,.684.462,2.464,2.464,0,0,0,1.768,0,1.983,1.983,0,0,0,.685-.462,2.071,2.071,0,0,0,.442-.71,2.709,2.709,0,0,0,0-1.812A2.1,2.1,0,0,0,620.594,178.029Zm-.122,2.343a1.541,1.541,0,0,1-.313.543,1.352,1.352,0,0,1-.491.341,1.808,1.808,0,0,1-1.285,0,1.365,1.365,0,0,1-.492-.341,1.513,1.513,0,0,1-.314-.543,2.43,2.43,0,0,1,0-1.452,1.517,1.517,0,0,1,.314-.544,1.379,1.379,0,0,1,.492-.342,1.794,1.794,0,0,1,1.285,0,1.367,1.367,0,0,1,.491.342,1.545,1.545,0,0,1,.313.544,2.451,2.451,0,0,1,0,1.452Z" transform="translate(-590.708 -142.652)"/>
    <polygon class="cls-1" points="35.394 35.296 36.82 35.296 36.82 39.191 37.415 39.191 37.415 35.296 38.835 35.296 38.835 34.796 35.394 34.796 35.394 35.296"/>
    <path class="cls-1" d="M638.2,178.029a1.974,1.974,0,0,0-.685-.464,2.437,2.437,0,0,0-1.768,0,1.979,1.979,0,0,0-.684.464,2.1,2.1,0,0,0-.442.712,2.709,2.709,0,0,0,0,1.812,2.071,2.071,0,0,0,.442.71,1.988,1.988,0,0,0,.684.462,2.464,2.464,0,0,0,1.768,0,1.983,1.983,0,0,0,.685-.462,2.086,2.086,0,0,0,.442-.71,2.709,2.709,0,0,0,0-1.812A2.115,2.115,0,0,0,638.2,178.029Zm-.122,2.343a1.556,1.556,0,0,1-.313.543,1.352,1.352,0,0,1-.491.341,1.808,1.808,0,0,1-1.285,0,1.365,1.365,0,0,1-.492-.341,1.529,1.529,0,0,1-.315-.543,2.451,2.451,0,0,1,0-1.452,1.534,1.534,0,0,1,.315-.544,1.379,1.379,0,0,1,.492-.342,1.794,1.794,0,0,1,1.285,0,1.367,1.367,0,0,1,.491.342,1.56,1.56,0,0,1,.313.544,2.451,2.451,0,0,1,0,1.452Z" transform="translate(-590.708 -142.652)"/>
    <path class="cls-1" d="M646.692,180.067a.113.113,0,0,0,.035.083.129.129,0,0,0,.093.034h.681v.969c-.077.041-.155.077-.233.109a2.06,2.06,0,0,1-.248.081,2.3,2.3,0,0,1-.281.051,2.963,2.963,0,0,1-.326.017,1.715,1.715,0,0,1-.651-.12,1.429,1.429,0,0,1-.508-.347,1.549,1.549,0,0,1-.333-.553,2.374,2.374,0,0,1,0-1.463,1.535,1.535,0,0,1,.325-.546,1.425,1.425,0,0,1,.513-.347,1.794,1.794,0,0,1,.671-.12,2.165,2.165,0,0,1,.44.039,1.876,1.876,0,0,1,.322.1,1.51,1.51,0,0,1,.232.118c.063.041.12.075.171.1a.215.215,0,0,0,.108.034.156.156,0,0,0,.135-.083l.168-.27a2.126,2.126,0,0,0-.3-.231,1.922,1.922,0,0,0-.355-.175,2.208,2.208,0,0,0-.415-.11,2.828,2.828,0,0,0-.485-.039,2.521,2.521,0,0,0-.93.163,1.964,1.964,0,0,0-1.159,1.168,2.54,2.54,0,0,0-.158.917,2.481,2.481,0,0,0,.161.911,2.083,2.083,0,0,0,.449.71,2.015,2.015,0,0,0,.687.46,2.287,2.287,0,0,0,.877.164,4.184,4.184,0,0,0,.506-.029,2.837,2.837,0,0,0,.437-.089,2.362,2.362,0,0,0,.383-.149,2.431,2.431,0,0,0,.345-.208V179.73h-1.349Z" transform="translate(-590.708 -142.652)"/>
    <path class="cls-1" d="M655.631,179.911a1.661,1.661,0,0,0,.455-.172,1.288,1.288,0,0,0,.341-.274,1.158,1.158,0,0,0,.213-.364,1.266,1.266,0,0,0,.074-.435,1.3,1.3,0,0,0-.1-.5.988.988,0,0,0-.293-.385,1.375,1.375,0,0,0-.5-.243,2.673,2.673,0,0,0-.72-.085h-1.242v4.395h.591v-1.834h.451a.413.413,0,0,1,.184.032.342.342,0,0,1,.114.106l1.141,1.57a.26.26,0,0,0,.239.126h.527l-1.281-1.745A.632.632,0,0,0,655.631,179.911Zm-.555-.334h-.623v-1.659h.651a1.252,1.252,0,0,1,.771.2.7.7,0,0,1,.259.592.894.894,0,0,1-.067.352.737.737,0,0,1-.2.275.952.952,0,0,1-.331.178A1.516,1.516,0,0,1,655.076,179.577Z" transform="translate(-590.708 -142.652)"/>
    <path class="cls-1" d="M663.85,177.448l-1.757,4.395h.46a.2.2,0,0,0,.129-.043.243.243,0,0,0,.073-.1l.411-1.061h1.972l.411,1.061a.242.242,0,0,0,.074.1.192.192,0,0,0,.128.04h.46l-1.757-4.395Zm-.518,2.763.69-1.784q.03-.081.063-.186c.021-.071.043-.148.065-.231a3.337,3.337,0,0,0,.132.413l.69,1.788Z" transform="translate(-590.708 -142.652)"/>
    <polygon class="cls-1" points="80.904 39.191 81.502 39.191 81.502 37.302 83.305 37.302 83.305 36.817 81.502 36.817 81.502 35.281 83.612 35.281 83.612 34.796 80.904 34.796 80.904 39.191"/>
    <rect class="cls-1" x="89.331" y="34.796" width="0.595" height="4.395"/>
    <polygon class="cls-1" points="95.949 39.191 98.657 39.191 98.657 38.706 96.547 38.706 96.547 37.207 98.255 37.207 98.255 36.74 96.547 36.74 96.547 35.281 98.657 35.281 98.657 34.796 95.949 34.796 95.949 39.191"/>
    <rect class="cls-1" y="25.036" width="52.034" height="0.493"/>
    <rect class="cls-1" x="70.288" y="25.036" width="46.502" height="0.493"/>
    <path class="cls-1" d="M655.412,170.755a.62.62,0,0,0,.635-.635q0-2.139,0-4.278a.615.615,0,0,0-.633-.64c-.39,0-.779,0-1.168,0a.133.133,0,0,1-.085-.035q-.582-.577-1.16-1.16a.123.123,0,0,0-.1-.039c-.788,0-1.576,0-2.363,0a.124.124,0,0,0-.081.032q-.582.577-1.16,1.159a.128.128,0,0,1-.1.042c-.4,0-.789,0-1.184,0a.614.614,0,0,0-.61.619c0,1.426,0,2.852,0,4.278a.647.647,0,0,0,.66.659c1.221-.008,2.443,0,3.664,0h3.685Zm-5.187-5.595c.178-.179.357-.356.535-.536a.121.121,0,0,1,.1-.04c.582,0,1.163,0,1.744,0a.124.124,0,0,1,.082.029c.187.183.371.368.555.553.007.007.013.016.024.029h-3.067C650.206,165.183,650.215,165.17,650.225,165.16Zm.4,4.978h-2.254a.313.313,0,0,1-.35-.348q0-1.308,0-2.616c0-.038,0-1,.012-1.12a.291.291,0,0,1,.3-.235h1.684l.052,0,.012.017a.227.227,0,0,0-.045.028,2.377,2.377,0,0,0-.759,1.459,2.417,2.417,0,0,0,.709,2.1c.219.223.442.443.662.664.013.012.024.026.044.048Zm1.1-.616a1.852,1.852,0,1,1,1.85-1.851A1.858,1.858,0,0,1,651.728,169.522Zm3.08-2.165-1.447-1.536h1.447Z" transform="translate(-590.708 -142.652)"/>
    <path class="cls-1" d="M652.321,166.589a1.234,1.234,0,0,0-1.65,1.721,1.211,1.211,0,0,0,1.185.579.947.947,0,0,1-.575-.364.9.9,0,0,1-.175-.652.923.923,0,0,1,.765-.816.9.9,0,0,1,.58.088.937.937,0,0,1,.5.656A1.217,1.217,0,0,0,652.321,166.589Z" transform="translate(-590.708 -142.652)"/>
  </g>
</svg>