<svg id="Ebene_1" data-name="Ebene 1" xmlns="http://www.w3.org/2000/svg" viewBox="0 0 29.644 23.291">
  <defs>
    <style>
      .cls-1 {
        fill: #fff;
      }
    </style>
  </defs>
  <path class="cls-1" d="M479.274,270.924c-4.188,0-8.377-.016-12.565.01a2.212,2.212,0,0,1-2.263-2.258c.018-4.89.008-9.781.009-14.671a2.105,2.105,0,0,1,2.091-2.123c1.355-.01,2.709-.006,4.063,0a.437.437,0,0,0,.343-.144q1.984-1.994,3.977-3.977a.436.436,0,0,1,.277-.109c2.7-.006,5.4,0,8.106-.008a.423.423,0,0,1,.33.134q1.983,1.994,3.977,3.976a.453.453,0,0,0,.29.12c1.335.008,2.671,0,4.006.007a2.11,2.11,0,0,1,2.173,2.195q0,7.335,0,14.671a2.126,2.126,0,0,1-2.176,2.178c-.42,0-.84,0-1.26,0Zm-6.353-10.585a6.351,6.351,0,1,0,6.364-6.345A6.369,6.369,0,0,0,472.921,260.339Zm-6.344-1.7q0,4.487,0,8.972a1.075,1.075,0,0,0,1.2,1.194h7.97c-.068-.076-.106-.122-.148-.164-.758-.759-1.521-1.511-2.273-2.276a8.308,8.308,0,0,1-2.432-7.211,8.169,8.169,0,0,1,2.6-5,.946.946,0,0,1,.155-.1l-.041-.056c-.059,0-.119-.008-.178-.008-.439,0-.878,0-1.317,0q-2.229,0-4.458,0a1,1,0,0,0-1.041.806C466.559,255.222,466.577,258.512,466.577,258.643Zm17.956-6.775c-.038-.046-.057-.075-.082-.1-.633-.634-1.265-1.27-1.905-1.9a.433.433,0,0,0-.28-.1c-1.994-.006-3.987,0-5.981-.008a.419.419,0,0,0-.328.136c-.608.616-1.221,1.226-1.832,1.838-.037.036-.067.078-.112.132ZM489.842,254h-4.963l4.963,5.269Z" transform="translate(-464.446 -247.643)"/>
  <path class="cls-1" d="M483.458,260.8a3.224,3.224,0,0,0-1.7-2.253,3.113,3.113,0,0,0-1.991-.3,3.166,3.166,0,0,0-2.622,2.8,3.055,3.055,0,0,0,.6,2.234,3.215,3.215,0,0,0,1.972,1.248,4.152,4.152,0,0,1-4.064-1.984,4.232,4.232,0,0,1,5.66-5.9A4.168,4.168,0,0,1,483.458,260.8Z" transform="translate(-464.446 -247.643)"/>
</svg>