<svg id="Ebene_1" data-name="Ebene 1" xmlns="http://www.w3.org/2000/svg" viewBox="0 0 248.696 83.545">
  <defs>
    <style>
      .cls-1 {
        fill: #fff;
      }
    </style>
  </defs>
  <g>
    <path class="cls-1" d="M6.958,40.355a.975.975,0,0,0,.316-.429l3.745-9.273H26.7l3.768,9.273a1.122,1.122,0,0,0,.316.44.781.781,0,0,0,.519.169h1.782L20.022,8.608h-2.3L4.656,40.535h1.76A.841.841,0,0,0,6.958,40.355ZM18.24,12.828c.1-.271.21-.568.315-.892s.211-.665.316-1.026q.158.542.316,1.026c.105.324.211.613.316.869l6.521,16.133H11.719Z" transform="translate(-4.652 -8.608)"/>
    <polygon class="cls-1" points="57.698 29.964 42.558 29.964 42.558 0 40.257 0 40.257 31.927 57.698 31.927 57.698 29.964"/>
    <polygon class="cls-1" points="73.719 31.927 76.02 31.927 76.02 1.963 87.234 1.963 87.234 0 62.437 0 62.437 1.963 73.719 1.963 73.719 31.927"/>
    <path class="cls-1" d="M106.191,13.324a12.347,12.347,0,0,0-.068-1.264L119.029,34.4a1.015,1.015,0,0,0,.9.587h.361a.983.983,0,0,0,.9-.587l12.568-22.315a12.11,12.11,0,0,0-.067,1.241V40.535h2.03V8.608h-1.6a1.459,1.459,0,0,0-.5.068.815.815,0,0,0-.361.361l-12.545,22.18a6.042,6.042,0,0,0-.328.665q-.147.351-.282.711a9.256,9.256,0,0,0-.586-1.354l-12.884-22.2a.806.806,0,0,0-.372-.361,1.57,1.57,0,0,0-.508-.068h-1.579V40.535h2.008Z" transform="translate(-4.652 -8.608)"/>
    <path class="cls-1" d="M173.384,39.926a1.132,1.132,0,0,0,.316.44.785.785,0,0,0,.519.169H176L162.938,8.608h-2.3L147.572,40.535h1.76a.84.84,0,0,0,.541-.18.959.959,0,0,0,.316-.429l3.746-9.273h15.682Zm-18.75-10.988,6.521-16.11q.157-.406.316-.892t.316-1.026c.1.361.211.7.315,1.026s.211.613.316.869l6.522,16.133Z" transform="translate(-4.652 -8.608)"/>
    <path class="cls-1" d="M189.832,13.662q0-.609-.067-1.286l20.758,27.708a.974.974,0,0,0,.835.451h1.1V8.608h-2.03V35.391A12.923,12.923,0,0,0,210.5,36.7L189.832,9.037a1.059,1.059,0,0,0-.383-.35,1.28,1.28,0,0,0-.5-.079h-1.128V40.535h2.008Z" transform="translate(-4.652 -8.608)"/>
    <path class="cls-1" d="M251.317,8.608V35.391q0,.631.068,1.309L230.717,9.037a1.059,1.059,0,0,0-.383-.35,1.287,1.287,0,0,0-.5-.079h-1.128V40.535h2.008V13.662q0-.609-.067-1.286l20.758,27.708a.971.971,0,0,0,.835.451h1.105V8.608Z" transform="translate(-4.652 -8.608)"/>
    <polygon class="cls-1" points="38.506 83.441 39.78 83.441 39.78 79.419 43.619 79.419 43.619 78.387 39.78 78.387 39.78 75.116 44.271 75.116 44.271 74.084 38.506 74.084 38.506 83.441"/>
    <path class="cls-1" d="M68.283,83.93a4.24,4.24,0,0,0-1.459-.99,5.207,5.207,0,0,0-3.764,0,4.25,4.25,0,0,0-1.457.99,4.458,4.458,0,0,0-.94,1.515,5.77,5.77,0,0,0,0,3.858,4.425,4.425,0,0,0,.94,1.512,4.219,4.219,0,0,0,1.457.983,5.249,5.249,0,0,0,3.764,0,4.209,4.209,0,0,0,1.459-.983,4.425,4.425,0,0,0,.94-1.512,5.754,5.754,0,0,0,0-3.858A4.458,4.458,0,0,0,68.283,83.93Zm-.261,4.989a3.3,3.3,0,0,1-.666,1.155,2.857,2.857,0,0,1-1.045.725,3.853,3.853,0,0,1-2.736,0,2.893,2.893,0,0,1-1.048-.725,3.27,3.27,0,0,1-.669-1.155,5.2,5.2,0,0,1,0-3.092,3.253,3.253,0,0,1,.669-1.159,2.925,2.925,0,0,1,1.048-.728,3.8,3.8,0,0,1,2.736,0,2.888,2.888,0,0,1,1.045.728,3.277,3.277,0,0,1,.666,1.159,5.2,5.2,0,0,1,0,3.092Z" transform="translate(-4.652 -8.608)"/>
    <polygon class="cls-1" points="75.357 75.148 78.394 75.148 78.394 83.441 79.66 83.441 79.66 75.148 82.683 75.148 82.683 74.084 75.357 74.084 75.357 75.148"/>
    <path class="cls-1" d="M105.761,83.93a4.24,4.24,0,0,0-1.459-.99,5.207,5.207,0,0,0-3.764,0,4.25,4.25,0,0,0-1.457.99,4.458,4.458,0,0,0-.94,1.515,5.754,5.754,0,0,0,0,3.858,4.425,4.425,0,0,0,.94,1.512,4.219,4.219,0,0,0,1.457.983,5.249,5.249,0,0,0,3.764,0,4.209,4.209,0,0,0,1.459-.983,4.425,4.425,0,0,0,.94-1.512,5.754,5.754,0,0,0,0-3.858A4.458,4.458,0,0,0,105.761,83.93Zm-.261,4.989a3.3,3.3,0,0,1-.666,1.155,2.865,2.865,0,0,1-1.045.725,3.853,3.853,0,0,1-2.736,0,2.893,2.893,0,0,1-1.048-.725,3.27,3.27,0,0,1-.669-1.155,5.2,5.2,0,0,1,0-3.092,3.253,3.253,0,0,1,.669-1.159,2.925,2.925,0,0,1,1.048-.728,3.8,3.8,0,0,1,2.736,0,2.9,2.9,0,0,1,1.045.728,3.277,3.277,0,0,1,.666,1.159,5.2,5.2,0,0,1,0,3.092Z" transform="translate(-4.652 -8.608)"/>
    <path class="cls-1" d="M123.847,88.269a.235.235,0,0,0,.075.176.276.276,0,0,0,.2.072h1.45V90.58c-.166.087-.331.164-.5.232a3.983,3.983,0,0,1-.528.173,4.578,4.578,0,0,1-.6.108,6.182,6.182,0,0,1-.695.036,3.645,3.645,0,0,1-1.385-.255,3.061,3.061,0,0,1-1.083-.738,3.344,3.344,0,0,1-.709-1.179,4.65,4.65,0,0,1-.251-1.583,4.571,4.571,0,0,1,.242-1.531,3.239,3.239,0,0,1,.692-1.162,3.025,3.025,0,0,1,1.09-.738,3.79,3.79,0,0,1,1.43-.258,4.491,4.491,0,0,1,.937.085,3.985,3.985,0,0,1,.686.206,3.113,3.113,0,0,1,.492.251c.136.087.257.161.366.222a.463.463,0,0,0,.229.072.33.33,0,0,0,.287-.177l.359-.574a4.632,4.632,0,0,0-.646-.493,4.11,4.11,0,0,0-.755-.372,4.7,4.7,0,0,0-.884-.235,6.065,6.065,0,0,0-1.032-.082,5.4,5.4,0,0,0-1.982.346,4.192,4.192,0,0,0-2.467,2.488,5.419,5.419,0,0,0-.337,1.952,5.319,5.319,0,0,0,.343,1.939,4.438,4.438,0,0,0,.956,1.512,4.3,4.3,0,0,0,1.463.979,4.859,4.859,0,0,0,1.868.35,8.782,8.782,0,0,0,1.077-.062,5.948,5.948,0,0,0,.93-.19,4.99,4.99,0,0,0,.816-.316,5.229,5.229,0,0,0,.735-.445V87.55h-2.873Z" transform="translate(-4.652 -8.608)"/>
    <path class="cls-1" d="M142.88,87.935a3.564,3.564,0,0,0,.969-.365,2.725,2.725,0,0,0,.725-.584,2.47,2.47,0,0,0,.454-.774,2.7,2.7,0,0,0,.157-.927,2.734,2.734,0,0,0-.2-1.074,2.084,2.084,0,0,0-.623-.82,2.942,2.942,0,0,0-1.068-.519,5.8,5.8,0,0,0-1.534-.18h-2.645v9.357h1.26v-3.9h.96a.869.869,0,0,1,.392.068.709.709,0,0,1,.242.226l2.429,3.342a.552.552,0,0,0,.509.268h1.123L143.3,88.334A1.358,1.358,0,0,0,142.88,87.935Zm-1.182-.711h-1.326V83.692h1.385a2.668,2.668,0,0,1,1.642.424,1.491,1.491,0,0,1,.552,1.26,1.922,1.922,0,0,1-.144.751,1.559,1.559,0,0,1-.428.584,1.965,1.965,0,0,1-.7.379A3.2,3.2,0,0,1,141.7,87.224Z" transform="translate(-4.652 -8.608)"/>
    <path class="cls-1" d="M160.378,82.692l-3.741,9.357h.979a.424.424,0,0,0,.275-.091.516.516,0,0,0,.156-.209l.875-2.26h4.2l.875,2.26a.525.525,0,0,0,.157.215.419.419,0,0,0,.274.085h.979l-3.741-9.357Zm-1.1,5.883,1.469-3.8c.043-.114.088-.246.134-.4s.092-.314.14-.492a7.191,7.191,0,0,0,.281.881l1.469,3.806Z" transform="translate(-4.652 -8.608)"/>
    <polygon class="cls-1" points="172.252 83.441 173.525 83.441 173.525 79.419 177.364 79.419 177.364 78.387 173.525 78.387 173.525 75.116 178.017 75.116 178.017 74.084 172.252 74.084 172.252 83.441"/>
    <rect class="cls-1" x="190.194" y="74.084" width="1.267" height="9.357"/>
    <polygon class="cls-1" points="204.284 83.441 210.049 83.441 210.049 82.409 205.557 82.409 205.557 79.216 209.194 79.216 209.194 78.224 205.557 78.224 205.557 75.116 210.049 75.116 210.049 74.084 204.284 74.084 204.284 83.441"/>
    <rect class="cls-1" y="53.305" width="110.786" height="1.05"/>
    <rect class="cls-1" x="149.649" y="53.305" width="99.006" height="1.05"/>
    <path class="cls-1" d="M142.414,68.441a1.319,1.319,0,0,0,1.35-1.352q0-4.554,0-9.108a1.309,1.309,0,0,0-1.348-1.362c-.83,0-1.659,0-2.488,0a.286.286,0,0,1-.18-.075q-1.238-1.23-2.469-2.468a.254.254,0,0,0-.2-.083q-2.517,0-5.033.005a.261.261,0,0,0-.171.068q-1.239,1.23-2.469,2.468a.275.275,0,0,1-.213.09c-.841,0-1.682-.006-2.522,0a1.309,1.309,0,0,0-1.3,1.318c0,3.036.006,6.072-.005,9.108a1.373,1.373,0,0,0,1.405,1.4c2.6-.016,5.2-.006,7.8-.006h7.847ZM131.37,56.53c.379-.381.76-.759,1.138-1.141a.258.258,0,0,1,.2-.085c1.237,0,2.475,0,3.712,0a.272.272,0,0,1,.174.062c.4.39.79.785,1.183,1.179.015.015.027.033.051.062H131.3C131.329,56.578,131.348,56.552,131.37,56.53Zm.86,10.6h-4.8a.666.666,0,0,1-.745-.741q0-2.785,0-5.57c0-.081-.011-2.123.025-2.385a.622.622,0,0,1,.646-.5c.923,0,1.845,0,2.768,0h.817c.037,0,.074,0,.111.005l.025.035a.626.626,0,0,0-.1.061,5.076,5.076,0,0,0-1.616,3.106,5.155,5.155,0,0,0,1.51,4.476c.467.475.941.942,1.411,1.413.026.026.05.055.092.1Zm2.338-1.312a3.943,3.943,0,1,1,3.94-3.941A3.953,3.953,0,0,1,134.568,65.816Zm6.559-4.608-3.081-3.271h3.081Z" transform="translate(-4.652 -8.608)"/>
    <path class="cls-1" d="M135.833,59.572a2.627,2.627,0,0,0-3.514,3.664,2.578,2.578,0,0,0,2.523,1.232,1.994,1.994,0,0,1-1.224-.774,1.9,1.9,0,0,1-.372-1.387,1.965,1.965,0,0,1,1.627-1.738,1.934,1.934,0,0,1,1.237.186,2,2,0,0,1,1.054,1.4A2.588,2.588,0,0,0,135.833,59.572Z" transform="translate(-4.652 -8.608)"/>
  </g>
</svg>