<svg id="Ebene_1" data-name="Ebene 1" xmlns="http://www.w3.org/2000/svg" viewBox="0 0 18.402 14.459">
  <defs>
    <style>
      .cls-1 {
        fill: #FFFFFF;
      }
    </style>
  </defs>
  <path class="cls-1" d="M479.272,266.512c-2.6,0-5.2-.01-7.8.006a1.374,1.374,0,0,1-1.4-1.4c.011-3.036,0-6.072,0-9.107a1.307,1.307,0,0,1,1.3-1.318c.84-.006,1.681,0,2.522,0a.268.268,0,0,0,.213-.09q1.232-1.236,2.469-2.468a.266.266,0,0,1,.171-.068c1.678,0,3.355,0,5.033,0a.261.261,0,0,1,.2.083q1.231,1.238,2.469,2.469a.28.28,0,0,0,.18.074c.829,0,1.658,0,2.487,0a1.31,1.31,0,0,1,1.349,1.363q0,4.554,0,9.108a1.319,1.319,0,0,1-1.351,1.352h-7.846Zm-3.944-6.571A3.943,3.943,0,1,0,479.279,256,3.953,3.953,0,0,0,475.328,259.941Zm-3.938-1.053q0,2.784,0,5.57a.666.666,0,0,0,.745.741h4.948c-.043-.047-.066-.076-.092-.1-.47-.471-.944-.938-1.411-1.413a5.157,5.157,0,0,1-1.51-4.476,5.073,5.073,0,0,1,1.616-3.106.558.558,0,0,1,.1-.061l-.025-.035c-.037,0-.074,0-.111,0h-.817q-1.385,0-2.768,0a.62.62,0,0,0-.646.5C471.379,256.764,471.39,258.807,471.39,258.888Zm11.146-4.206c-.023-.029-.035-.047-.05-.062-.394-.394-.785-.789-1.183-1.178a.273.273,0,0,0-.174-.063c-1.237,0-2.475,0-3.713,0a.262.262,0,0,0-.2.084c-.377.382-.758.761-1.137,1.141-.022.023-.041.049-.069.082Zm3.3,1.326h-3.081l3.081,3.271Z" transform="translate(-470.067 -252.059)"/>
  <path class="cls-1" d="M481.869,260.224a2,2,0,0,0-1.054-1.4,1.934,1.934,0,0,0-1.237-.187,1.968,1.968,0,0,0-1.628,1.738,1.9,1.9,0,0,0,.372,1.387,2,2,0,0,0,1.225.775,2.579,2.579,0,0,1-2.523-1.232,2.627,2.627,0,0,1,3.514-3.664A2.587,2.587,0,0,1,481.869,260.224Z" transform="translate(-470.067 -252.059)"/>
</svg>