<svg id="Ebene_1" data-name="Ebene 1" xmlns="http://www.w3.org/2000/svg" viewBox="0 0 57.414 19.287">
  <defs>
    <style>
      .cls-1 {
        fill: #1d1d1b;
      }
    </style>
  </defs>
  <g>
    <path class="cls-1" d="M620.937,159.957a.214.214,0,0,0,.073-.1l.865-2.141h3.62l.87,2.141a.257.257,0,0,0,.073.1.18.18,0,0,0,.12.039h.411l-3.016-7.371h-.531L620.406,160h.406A.191.191,0,0,0,620.937,159.957Zm2.605-6.355c.024-.062.048-.131.073-.205s.048-.154.073-.237c.024.083.048.162.073.237s.048.141.073.2l1.505,3.725h-3.3Z" transform="translate(-620.405 -152.628)"/>
    <polygon class="cls-1" points="13.32 6.918 9.825 6.918 9.825 0 9.294 0 9.294 7.371 13.32 7.371 13.32 6.918"/>
    <polygon class="cls-1" points="17.019 7.371 17.55 7.371 17.55 0.453 20.139 0.453 20.139 0 14.414 0 14.414 0.453 17.019 0.453 17.019 7.371"/>
    <path class="cls-1" d="M643.846,153.717c0-.094,0-.191-.015-.292l2.979,5.157a.235.235,0,0,0,.209.136h.083a.226.226,0,0,0,.208-.136l2.9-5.151a2.624,2.624,0,0,0-.016.286V160h.469v-7.371h-.37a.323.323,0,0,0-.115.016.191.191,0,0,0-.083.083l-2.9,5.121a1.453,1.453,0,0,0-.076.153c-.022.054-.044.109-.065.165a2.063,2.063,0,0,0-.135-.313l-2.975-5.126a.179.179,0,0,0-.085-.083.35.35,0,0,0-.118-.016h-.364V160h.463Z" transform="translate(-620.405 -152.628)"/>
    <path class="cls-1" d="M659.359,159.858a.248.248,0,0,0,.073.1.179.179,0,0,0,.119.039h.412l-3.016-7.371h-.531L653.4,160h.406a.193.193,0,0,0,.125-.042.214.214,0,0,0,.073-.1l.865-2.141h3.62Zm-4.329-2.536,1.506-3.72c.024-.062.048-.131.072-.205s.049-.154.073-.237c.025.083.049.162.073.237s.049.141.073.2l1.506,3.725Z" transform="translate(-620.405 -152.628)"/>
    <path class="cls-1" d="M663.156,153.795a2.823,2.823,0,0,0-.016-.3l4.793,6.4a.224.224,0,0,0,.192.1h.256v-7.371h-.469v6.183c0,.1,0,.2.015.3l-4.771-6.386a.243.243,0,0,0-.089-.08.273.273,0,0,0-.114-.019h-.261V160h.464Z" transform="translate(-620.405 -152.628)"/>
    <path class="cls-1" d="M677.35,152.628v6.183c0,.1.006.2.016.3l-4.771-6.386a.251.251,0,0,0-.089-.08.278.278,0,0,0-.115-.019h-.26V160h.464v-6.2c0-.094-.006-.193-.016-.3l4.792,6.4a.226.226,0,0,0,.193.1h.255v-7.371Z" transform="translate(-620.405 -152.628)"/>
    <polygon class="cls-1" points="8.89 19.263 9.184 19.263 9.184 18.335 10.07 18.335 10.07 18.096 9.184 18.096 9.184 17.341 10.221 17.341 10.221 17.103 8.89 17.103 8.89 19.263"/>
    <path class="cls-1" d="M635.1,170.017a.976.976,0,0,0-.337-.228,1.192,1.192,0,0,0-.869,0,.962.962,0,0,0-.336.228,1.019,1.019,0,0,0-.217.35,1.327,1.327,0,0,0,0,.891,1.015,1.015,0,0,0,.217.349.974.974,0,0,0,.336.227,1.22,1.22,0,0,0,.869,0,.987.987,0,0,0,.337-.227,1.03,1.03,0,0,0,.217-.349,1.327,1.327,0,0,0,0-.891A1.034,1.034,0,0,0,635.1,170.017Zm-.06,1.152a.777.777,0,0,1-.154.267.673.673,0,0,1-.241.167.89.89,0,0,1-.632,0,.686.686,0,0,1-.242-.167.747.747,0,0,1-.154-.267,1.186,1.186,0,0,1,0-.714.738.738,0,0,1,.154-.267.691.691,0,0,1,.242-.169.89.89,0,0,1,.632,0,.678.678,0,0,1,.241.169.768.768,0,0,1,.154.267,1.207,1.207,0,0,1,0,.714Z" transform="translate(-620.405 -152.628)"/>
    <polygon class="cls-1" points="17.397 17.349 18.098 17.349 18.098 19.263 18.39 19.263 18.39 17.349 19.088 17.349 19.088 17.103 17.397 17.103 17.397 17.349"/>
    <path class="cls-1" d="M643.747,170.017a.966.966,0,0,0-.337-.228,1.192,1.192,0,0,0-.869,0,.972.972,0,0,0-.336.228,1.034,1.034,0,0,0-.217.35,1.327,1.327,0,0,0,0,.891,1.03,1.03,0,0,0,.217.349.983.983,0,0,0,.336.227,1.22,1.22,0,0,0,.869,0,.978.978,0,0,0,.337-.227,1.03,1.03,0,0,0,.217-.349,1.327,1.327,0,0,0,0-.891A1.034,1.034,0,0,0,643.747,170.017Zm-.06,1.152a.762.762,0,0,1-.154.267.673.673,0,0,1-.241.167.89.89,0,0,1-.632,0,.686.686,0,0,1-.242-.167.747.747,0,0,1-.154-.267,1.207,1.207,0,0,1,0-.714.738.738,0,0,1,.154-.267.691.691,0,0,1,.242-.169.89.89,0,0,1,.632,0,.678.678,0,0,1,.241.169.753.753,0,0,1,.154.267,1.207,1.207,0,0,1,0,.714Z" transform="translate(-620.405 -152.628)"/>
    <path class="cls-1" d="M647.922,171.019a.052.052,0,0,0,.018.04.06.06,0,0,0,.046.017h.334v.476a1.174,1.174,0,0,1-.114.054.872.872,0,0,1-.122.04,1.1,1.1,0,0,1-.138.025,1.575,1.575,0,0,1-.161.008.843.843,0,0,1-.319-.059.7.7,0,0,1-.25-.17.764.764,0,0,1-.164-.272,1.162,1.162,0,0,1,0-.719.747.747,0,0,1,.16-.269.711.711,0,0,1,.251-.17.873.873,0,0,1,.33-.059,1.054,1.054,0,0,1,.217.019.9.9,0,0,1,.158.048.669.669,0,0,1,.114.058q.047.03.084.051a.109.109,0,0,0,.053.017.076.076,0,0,0,.066-.041l.083-.133a1.108,1.108,0,0,0-.149-.114.937.937,0,0,0-.174-.085,1.127,1.127,0,0,0-.2-.055,1.484,1.484,0,0,0-.239-.019,1.248,1.248,0,0,0-.457.08.975.975,0,0,0-.57.575,1.243,1.243,0,0,0-.077.45,1.222,1.222,0,0,0,.079.448,1.017,1.017,0,0,0,.22.349,1,1,0,0,0,.338.226,1.118,1.118,0,0,0,.431.081,1.926,1.926,0,0,0,.249-.015,1.386,1.386,0,0,0,.215-.043,1.2,1.2,0,0,0,.188-.073,1.35,1.35,0,0,0,.17-.1v-.829h-.664Z" transform="translate(-620.405 -152.628)"/>
    <path class="cls-1" d="M652.316,170.942a.827.827,0,0,0,.224-.084.665.665,0,0,0,.168-.135.583.583,0,0,0,.1-.179.625.625,0,0,0,.037-.214.634.634,0,0,0-.047-.248.474.474,0,0,0-.144-.189.686.686,0,0,0-.247-.12,1.311,1.311,0,0,0-.354-.042h-.61v2.161h.291v-.9h.221a.2.2,0,0,1,.091.016.167.167,0,0,1,.055.052l.561.772a.128.128,0,0,0,.118.062h.259l-.63-.858A.3.3,0,0,0,652.316,170.942Zm-.272-.164h-.306v-.816h.319a.617.617,0,0,1,.379.1.344.344,0,0,1,.128.291.441.441,0,0,1-.034.173.356.356,0,0,1-.1.135.463.463,0,0,1-.163.088A.765.765,0,0,1,652.044,170.778Z" transform="translate(-620.405 -152.628)"/>
    <path class="cls-1" d="M656.356,169.731l-.864,2.161h.226a.1.1,0,0,0,.064-.022.117.117,0,0,0,.036-.048l.2-.521h.969l.2.521a.122.122,0,0,0,.036.05.1.1,0,0,0,.064.02h.226l-.864-2.161Zm-.255,1.359.34-.878c.01-.026.02-.056.03-.091s.022-.072.033-.114a1.6,1.6,0,0,0,.065.2l.339.879Z" transform="translate(-620.405 -152.628)"/>
    <polygon class="cls-1" points="39.766 19.263 40.06 19.263 40.06 18.335 40.947 18.335 40.947 18.096 40.06 18.096 40.06 17.341 41.097 17.341 41.097 17.103 39.766 17.103 39.766 19.263"/>
    <rect class="cls-1" x="43.908" y="17.103" width="0.292" height="2.16"/>
    <polygon class="cls-1" points="47.161 19.263 48.492 19.263 48.492 19.025 47.455 19.025 47.455 18.288 48.295 18.288 48.295 18.059 47.455 18.059 47.455 17.341 48.492 17.341 48.492 17.103 47.161 17.103 47.161 19.263"/>
    <rect class="cls-1" y="12.306" width="25.576" height="0.242"/>
    <rect class="cls-1" x="34.548" y="12.306" width="22.857" height="0.242"/>
    <path class="cls-1" d="M652.209,166.441a.3.3,0,0,0,.312-.312q0-1.052,0-2.1a.3.3,0,0,0-.311-.315h-.574a.066.066,0,0,1-.042-.017q-.285-.283-.57-.57a.059.059,0,0,0-.047-.019h-1.162a.057.057,0,0,0-.039.016q-.287.284-.57.57a.066.066,0,0,1-.05.02h-.582a.3.3,0,0,0-.3.305c0,.7,0,1.4,0,2.1a.318.318,0,0,0,.325.324c.6,0,1.2,0,1.8,0h1.631C652.088,166.441,652.149,166.442,652.209,166.441Zm-2.55-2.75c.088-.087.176-.175.263-.263a.059.059,0,0,1,.047-.019h.857a.061.061,0,0,1,.04.014c.092.09.182.181.273.272l.012.014h-1.508Zm.2,2.447H648.75a.153.153,0,0,1-.172-.171c0-.428,0-.857,0-1.286,0-.018,0-.49,0-.55a.144.144,0,0,1,.15-.116h.853l.006.008a.118.118,0,0,0-.022.014,1.172,1.172,0,0,0-.374.717,1.193,1.193,0,0,0,.349,1.034l.326.326.021.023Zm.54-.3a.91.91,0,1,1,.909-.909A.911.911,0,0,1,650.4,165.835Zm1.514-1.063-.711-.756h.711Z" transform="translate(-620.405 -152.628)"/>
    <path class="cls-1" d="M650.69,164.394a.607.607,0,0,0-.812.846.6.6,0,0,0,.583.284.457.457,0,0,1-.283-.179.438.438,0,0,1-.086-.32.453.453,0,0,1,.376-.4.445.445,0,0,1,.285.043.464.464,0,0,1,.244.323A.6.6,0,0,0,650.69,164.394Z" transform="translate(-620.405 -152.628)"/>
  </g>
</svg>